<?xml version="1.0" encoding="utf-8"?>
<svg id="master-artboard" viewBox="0 0 941.941650390625 302.4998474121094" version="1.1" xmlns="http://www.w3.org/2000/svg" x="0px" y="0px" style="enable-background:new 0 0 1400 980;" width="941.941650390625px" height="302.4998474121094px"><rect id="ee-background" x="0" y="0" width="941.941650390625" height="302.4998474121094" style="fill: white; fill-opacity: 0; pointer-events: none;"/>

































































































<g transform="matrix(5.090328693389893, 0, 0, 5.090328693389893, 49.35556494794082, 30.760011005969886)"><path fill-rule="evenodd" clip-rule="evenodd" d="M30.452 3.237a8.595 8.595 0 00-12.155 0L2.517 19.016a8.595 8.595 0 000 12.156l15.78 15.779a8.595 8.595 0 0012.155 0l15.78-15.78a8.595 8.595 0 000-12.155l-15.78-15.78zm-6.078 33.46c6.41 0 11.604-5.195 11.604-11.603 0-6.409-5.195-11.604-11.604-11.604-6.408 0-11.603 5.195-11.603 11.604 0 6.408 5.195 11.603 11.604 11.603z" fill="#555"/><path d="M 32.233 25.216 A 7.736 7.736 0 0 1 24.497 32.952 A 7.736 7.736 0 0 1 16.761 25.216 A 7.736 7.736 0 0 1 24.497 17.48 A 7.736 7.736 0 0 1 32.233 25.216 Z" stroke="#555" stroke-opacity=".5" stroke-width="2.579"/><path d="M 28.365 25.216 A 3.868 3.868 0 0 1 24.497 29.084 A 3.868 3.868 0 0 1 20.629 25.216 A 3.868 3.868 0 0 1 24.497 21.348 A 3.868 3.868 0 0 1 28.365 25.216 Z" fill="#555" fill-opacity=".8"/></g><path d="M 403.32745361328125 86.8600082397461 C 403.32745361328125 88.59333801269531 402.734130859375 89.92667388916016 401.5474548339844 90.8600082397461 C 400.3674621582031 91.79334259033203 398.67413330078125 92.260009765625 396.4674377441406 92.260009765625 L 394.45745849609375 92.260009765625 L 394.45745849609375 99.00000762939453 L 392.4674377441406 99.00000762939453 L 392.4674377441406 81.87001037597656 L 396.9074401855469 81.87001037597656 C 401.18743896484375 81.87001037597656 403.32745361328125 83.53334045410156 403.32745361328125 86.8600082397461 M 394.45745849609375 90.55001068115234 L 396.2474670410156 90.55001068115234 C 398.0141296386719 90.55001068115234 399.290771484375 90.26667785644531 400.07745361328125 89.70000457763672 C 400.87078857421875 89.12667846679688 401.2674560546875 88.21000671386719 401.2674560546875 86.95000457763672 C 401.2674560546875 85.8166732788086 400.89410400390625 84.97334289550781 400.1474609375 84.42000579833984 C 399.4074401855469 83.8666763305664 398.25079345703125 83.59001159667969 396.6774597167969 83.59001159667969 L 394.45745849609375 83.59001159667969 L 394.45745849609375 90.55001068115234 ZM 421.7834167480469 90.41000366210938 C 421.7834167480469 93.15000915527344 421.090087890625 95.30667114257812 419.7033996582031 96.8800048828125 C 418.3167419433594 98.44667053222656 416.3867492675781 99.23001098632812 413.91339111328125 99.23001098632812 C 411.3934020996094 99.23001098632812 409.4467468261719 98.46000671386719 408.0733947753906 96.92000579833984 C 406.7000732421875 95.3800048828125 406.0133972167969 93.20333862304688 406.0133972167969 90.39000701904297 C 406.0133972167969 87.59667205810547 406.7033996582031 85.43334197998047 408.0834045410156 83.90000915527344 C 409.45672607421875 82.3666763305664 411.4100646972656 81.60000610351562 413.94342041015625 81.60000610351562 C 416.4034118652344 81.60000610351562 418.3233947753906 82.3800048828125 419.7033996582031 83.94001007080078 C 421.090087890625 85.50667572021484 421.7834167480469 87.66333770751953 421.7834167480469 90.41000366210938 M 408.1234130859375 90.41000366210938 C 408.1234130859375 92.73001098632812 408.6200866699219 94.49000549316406 409.6134033203125 95.69001007080078 C 410.6000671386719 96.89000701904297 412.0334167480469 97.49000549316406 413.91339111328125 97.49000549316406 C 415.81341552734375 97.49000549316406 417.2467346191406 96.89334106445312 418.2134094238281 95.70000457763672 C 419.1867370605469 94.50000762939453 419.67340087890625 92.7366714477539 419.67340087890625 90.41000366210938 C 419.67340087890625 88.10334014892578 419.1900634765625 86.35667419433594 418.2234191894531 85.17000579833984 C 417.2567443847656 83.97667694091797 415.830078125 83.3800048828125 413.94342041015625 83.3800048828125 C 412.04339599609375 83.3800048828125 410.6000671386719 83.98001098632812 409.6134033203125 85.18000793457031 C 408.6200866699219 86.3800048828125 408.1234130859375 88.12333679199219 408.1234130859375 90.41000366210938 ZM 427.59576416015625 91.87001037597656 L 427.59576416015625 99.00000762939453 L 425.6057434082031 99.00000762939453 L 425.6057434082031 81.87001037597656 L 430.2957458496094 81.87001037597656 C 432.4024353027344 81.87001037597656 433.95574951171875 82.27000427246094 434.95574951171875 83.07000732421875 C 435.9624328613281 83.87667846679688 436.46575927734375 85.09001159667969 436.46575927734375 86.71000671386719 C 436.46575927734375 88.97667694091797 435.3157653808594 90.50667572021484 433.0157470703125 91.30001068115234 L 437.6757507324219 99.00000762939453 L 435.3157653808594 99.00000762939453 L 431.165771484375 91.87001037597656 L 427.59576416015625 91.87001037597656 M 427.59576416015625 90.16000366210938 L 430.32574462890625 90.16000366210938 C 431.732421875 90.16000366210938 432.7624206542969 89.88333892822266 433.415771484375 89.33000946044922 C 434.07574462890625 88.77000427246094 434.40576171875 87.93000793457031 434.40576171875 86.81000518798828 C 434.40576171875 85.67667388916016 434.069091796875 84.8600082397461 433.395751953125 84.3600082397461 C 432.7290954589844 83.8600082397461 431.6590881347656 83.6100082397461 430.1857604980469 83.6100082397461 L 427.59576416015625 83.6100082397461 L 427.59576416015625 90.16000366210938 ZM 445.70867919921875 99.00000762939453 L 443.71868896484375 99.00000762939453 L 443.71868896484375 83.64000701904297 L 438.2886657714844 83.64000701904297 L 438.2886657714844 81.87001037597656 L 451.128662109375 81.87001037597656 L 451.128662109375 83.64000701904297 L 445.70867919921875 83.64000701904297 L 445.70867919921875 99.00000762939453 ZM 468.5860595703125 90.41000366210938 C 468.5860595703125 93.15000915527344 467.8927001953125 95.30667114257812 466.50604248046875 96.8800048828125 C 465.119384765625 98.44667053222656 463.18939208984375 99.23001098632812 460.7160339355469 99.23001098632812 C 458.196044921875 99.23001098632812 456.2493896484375 98.46000671386719 454.87603759765625 96.92000579833984 C 453.5027160644531 95.3800048828125 452.8160400390625 93.20333862304688 452.8160400390625 90.39000701904297 C 452.8160400390625 87.59667205810547 453.50604248046875 85.43334197998047 454.88604736328125 83.90000915527344 C 456.2593688964844 82.3666763305664 458.21270751953125 81.60000610351562 460.7460632324219 81.60000610351562 C 463.2060546875 81.60000610351562 465.12603759765625 82.3800048828125 466.50604248046875 83.94001007080078 C 467.8927001953125 85.50667572021484 468.5860595703125 87.66333770751953 468.5860595703125 90.41000366210938 M 454.9260559082031 90.41000366210938 C 454.9260559082031 92.73001098632812 455.4227294921875 94.49000549316406 456.4160461425781 95.69001007080078 C 457.4027099609375 96.89000701904297 458.8360595703125 97.49000549316406 460.7160339355469 97.49000549316406 C 462.6160583496094 97.49000549316406 464.04937744140625 96.89334106445312 465.01605224609375 95.70000457763672 C 465.9893798828125 94.50000762939453 466.4760437011719 92.7366714477539 466.4760437011719 90.41000366210938 C 466.4760437011719 88.10334014892578 465.9927062988281 86.35667419433594 465.02606201171875 85.17000579833984 C 464.05938720703125 83.97667694091797 462.6327209472656 83.3800048828125 460.7460632324219 83.3800048828125 C 458.8460388183594 83.3800048828125 457.4027099609375 83.98001098632812 456.4160461425781 85.18000793457031 C 455.4227294921875 86.3800048828125 454.9260559082031 88.12333679199219 454.9260559082031 90.41000366210938 Z" transform="matrix(7.037290096282959, 0, 0, 7.037290096282959, -2440.366943359375, -472.86273193359375)" style="fill: rgb(85, 85, 85); white-space: pre; color: rgb(51, 51, 51);"/></svg>